<?xml version="1.0" standalone="no"?>
<!DOCTYPE svg PUBLIC "-//W3C//DTD SVG 20010904//EN"
 "http://www.w3.org/TR/2001/REC-SVG-20010904/DTD/svg10.dtd">
<svg version="1.0" xmlns="http://www.w3.org/2000/svg"
 width="85.000000pt" height="60.000000pt" viewBox="0 0 900.000000 663.000000"
 preserveAspectRatio="xMidYMid meet">
<metadata>
Created by potrace 1.10, written by Peter Selinger 2001-2011
</metadata>
<g transform="translate(0.000000,663.000000) scale(0.100000,-0.100000)"
 stroke="none">
<path d="M4850 6540 c-19 -4 -80 -15 -135 -25 -55 -9 -134 -22 -175 -30 -84
-15 -176 -30 -545 -89 -197 -32 -281 -50 -410 -91 -22 -6 -67 -20 -100 -30
-171 -50 -172 -50 -255 -87 -138 -61 -268 -124 -325 -158 -27 -16 -57 -33 -65
-37 -8 -3 -44 -25 -80 -47 -36 -23 -74 -47 -85 -53 -65 -41 -160 -100 -180
-113 -13 -8 -50 -31 -82 -51 -32 -19 -96 -66 -143 -103 -138 -111 -648 -594
-756 -717 -100 -113 -224 -260 -274 -323 -8 -10 -17 -44 -21 -75 -3 -31 -11
-85 -18 -121 -7 -36 -19 -101 -28 -145 -37 -200 -45 -226 -89 -285 -23 -32
-55 -77 -70 -101 -36 -57 -118 -144 -169 -178 -22 -14 -69 -35 -105 -45 -36
-10 -85 -24 -110 -31 -25 -7 -62 -16 -82 -20 -41 -6 -78 -38 -184 -155 -91
-101 -243 -266 -306 -334 -32 -34 -57 -70 -58 -81 0 -29 114 -357 142 -407 42
-77 337 -312 488 -390 57 -29 154 -35 233 -14 74 19 84 27 190 143 50 54 111
121 137 148 132 140 173 203 235 351 57 136 60 144 96 219 37 79 102 169 145
202 73 55 246 181 315 229 78 54 88 59 264 122 l100 35 175 0 c96 -1 240 -8
319 -17 137 -16 145 -18 198 -54 94 -64 100 -66 143 -49 44 17 33 23 326 -170
86 -57 157 -103 159 -103 1 0 74 -47 160 -105 87 -58 159 -105 160 -105 2 0
74 -47 160 -105 87 -58 159 -105 160 -105 2 0 74 -47 160 -105 87 -58 159
-105 161 -105 2 0 33 -20 68 -44 35 -24 68 -45 72 -47 9 -4 399 -261 512 -338
30 -20 61 -40 70 -46 42 -25 102 -78 102 -89 0 -8 9 -34 20 -59 15 -34 41 -62
98 -107 42 -34 104 -84 137 -110 33 -27 102 -82 154 -122 52 -40 131 -102 177
-138 45 -36 120 -94 166 -129 46 -36 85 -67 88 -71 31 -36 196 -144 488 -319
195 -116 355 -211 357 -211 2 0 21 -12 42 -26 21 -14 47 -30 58 -35 26 -12 46
-25 120 -74 33 -22 68 -44 77 -50 31 -18 262 -177 318 -219 30 -23 82 -59 115
-81 62 -41 165 -138 165 -156 0 -25 67 -109 95 -120 114 -41 227 -50 302 -24
86 30 223 124 311 215 83 85 207 265 227 328 3 12 13 22 21 22 11 0 14 19 14
90 0 70 -3 90 -14 90 -8 0 -17 16 -21 38 -7 41 -39 138 -56 174 -16 33 -129
114 -224 160 -44 21 -87 43 -95 48 -8 5 -73 43 -144 85 -116 69 -207 129 -381
250 -53 37 -111 78 -363 256 -34 24 -94 67 -131 94 -38 28 -108 77 -156 110
-48 33 -122 85 -165 116 -75 55 -149 96 -500 277 -96 49 -238 122 -315 162
-388 202 -428 220 -444 207 -9 -7 -37 -24 -63 -37 l-47 -24 -168 113 c-298
202 -674 456 -698 471 -70 45 -1362 912 -1375 923 -8 6 -28 38 -43 69 -24 51
-38 64 -112 113 -46 31 -98 69 -115 86 -40 41 -200 282 -200 303 0 13 61 109
80 126 3 3 27 32 52 65 95 125 175 192 350 296 57 33 110 64 118 69 8 6 38 21
65 35 28 14 57 30 65 35 26 15 208 100 216 100 4 0 44 14 88 31 149 57 181 67
326 104 36 9 88 23 116 31 28 8 59 14 69 14 10 0 41 6 69 14 28 8 89 22 136
31 172 34 417 94 499 122 49 17 121 77 121 100 0 15 -34 63 -95 134 -16 19
-49 59 -73 87 -30 36 -53 53 -75 57 -32 6 -136 -3 -304 -26 -145 -20 -140 -4
23 78 76 38 139 74 141 80 6 17 -227 213 -251 212 -12 -1 -37 -5 -56 -9z"/>
</g>
</svg>
