<?xml version="1.0" standalone="no"?>
<!DOCTYPE svg PUBLIC "-//W3C//DTD SVG 20010904//EN"
 "http://www.w3.org/TR/2001/REC-SVG-20010904/DTD/svg10.dtd">
<svg version="1.0" xmlns="http://www.w3.org/2000/svg"
 width="85.000000pt" height="60.000000pt" viewBox="0 0 900.000000 663.000000"
 preserveAspectRatio="xMidYMid meet">
<metadata>
Created by potrace 1.10, written by Peter Selinger 2001-2011
</metadata>
<g transform="translate(0.000000,663.000000) scale(0.100000,-0.100000)"
fill="rgba(189,118,19,0.384)" stroke="none">
<path d="M3936 6449 c-64 -55 -116 -105 -114 -111 2 -6 66 -42 142 -80 164
-83 169 -99 23 -79 -168 23 -272 32 -304 26 -22 -4 -45 -21 -75 -57 -24 -28
-57 -68 -73 -87 -61 -71 -95 -119 -95 -134 0 -23 72 -83 121 -100 80 -28 328
-88 499 -122 47 -9 110 -23 140 -30 30 -8 87 -21 125 -30 144 -33 276 -69 338
-91 70 -26 122 -46 155 -60 18 -8 37 -14 43 -14 10 0 188 -81 219 -100 8 -5
38 -21 65 -35 28 -14 57 -29 65 -35 8 -5 61 -36 118 -69 175 -104 255 -171
350 -296 25 -33 49 -62 52 -65 19 -17 80 -113 80 -126 0 -21 -160 -262 -200
-303 -17 -17 -69 -55 -115 -86 -74 -49 -88 -62 -112 -113 -15 -31 -35 -63 -43
-69 -12 -11 -1302 -876 -1375 -923 -13 -8 -82 -55 -155 -105 -72 -49 -138 -94
-147 -100 -17 -11 -142 -95 -406 -273 l-158 -106 -47 24 c-26 13 -54 30 -63
37 -16 14 -40 2 -449 -209 -80 -41 -221 -115 -315 -163 -350 -180 -420 -219
-496 -274 -43 -31 -108 -77 -146 -104 -37 -26 -107 -75 -155 -110 -148 -105
-409 -289 -513 -362 -174 -121 -265 -181 -381 -250 -71 -42 -136 -80 -144 -85
-8 -5 -51 -27 -95 -48 -96 -47 -208 -128 -225 -162 -61 -125 -89 -333 -55
-414 37 -87 143 -240 227 -326 88 -91 225 -185 311 -215 75 -26 188 -17 302
24 28 11 95 95 95 120 0 18 103 115 165 156 33 22 85 58 115 81 56 42 287 201
318 219 9 6 44 28 77 50 74 49 94 62 120 74 11 5 37 21 58 35 21 14 40 26 42
26 2 0 162 95 357 211 292 175 457 283 488 319 3 4 42 35 88 71 46 35 121 93
166 129 46 36 125 98 177 138 52 40 121 95 154 122 33 26 95 76 137 110 57 45
83 73 98 107 11 25 20 51 20 59 0 11 60 64 102 89 9 6 40 26 70 46 113 77 503
334 512 338 4 2 37 23 72 47 35 24 66 44 68 44 2 0 74 47 161 105 86 58 158
105 160 105 1 0 73 47 160 105 86 58 158 105 160 105 1 0 73 47 160 105 86 58
159 105 160 105 2 0 73 46 159 103 293 193 282 187 326 170 43 -17 49 -15 143
49 53 36 61 38 198 54 79 9 223 16 319 17 l175 0 100 -35 c55 -20 120 -43 144
-52 49 -19 140 -80 336 -226 143 -107 189 -158 244 -275 36 -75 39 -82 96
-219 62 -148 103 -211 235 -351 26 -27 87 -94 137 -148 106 -116 116 -124 190
-143 123 -33 223 -8 350 87 29 21 55 39 59 39 9 0 132 99 222 178 87 77 102
104 173 315 32 97 58 157 66 157 8 0 13 12 13 31 0 16 -4 28 -9 25 -9 -6 -112
103 -371 389 -111 122 -147 154 -188 160 -20 4 -57 13 -82 20 -25 7 -74 21
-110 31 -36 10 -83 31 -105 45 -51 34 -133 121 -169 178 -15 24 -47 69 -70
101 -44 59 -51 83 -90 285 -8 44 -22 116 -30 160 -9 44 -16 96 -16 116 0 38
-10 55 -89 149 -228 273 -281 327 -642 669 -212 200 -370 334 -462 390 -32 20
-69 43 -82 51 -20 13 -115 72 -180 113 -11 6 -49 30 -85 53 -36 22 -72 44 -80
47 -8 4 -37 21 -65 37 -45 27 -173 91 -250 124 -16 7 -46 20 -65 29 -104 45
-95 42 -265 92 -33 10 -78 24 -100 30 -151 47 -230 63 -595 120 -133 21 -264
43 -360 60 -41 8 -120 21 -175 30 -55 9 -119 21 -142 26 -23 5 -48 9 -56 9 -8
0 -67 -45 -131 -101z"/>
</g>
</svg>
